<svg width="156" height="154" viewBox="0 0 156 154" fill="none" xmlns="http://www.w3.org/2000/svg">
<path d="M78.0271 125.694C75.0525 125.694 72.5858 123.227 72.5858 120.252V98.4872C72.5858 95.5127 75.0525 93.046 78.0271 93.046C81.0017 93.046 83.4684 95.5127 83.4684 98.4872V120.252C83.4684 123.227 81.0017 125.694 78.0271 125.694Z" fill="#6B4EFF"/>
<path d="M118.655 153.335H37.3986C24.1944 153.335 12.1511 143.178 9.97454 130.192L0.32534 72.3691C-1.27077 63.3729 3.15481 51.8374 10.3373 46.1059L60.6147 5.84043C70.3365 -1.99501 85.6446 -1.92246 95.4389 5.91298L145.716 46.1059C152.826 51.8374 157.179 63.3729 155.728 72.3691L146.079 130.119C143.903 142.961 131.569 153.335 118.655 153.335ZM77.9542 10.919C74.1091 10.919 70.2639 12.0798 67.4344 14.3288L17.157 54.6668C13.0942 57.9316 10.1922 65.4768 11.0628 70.6279L20.712 128.378C22.0179 135.996 29.6357 142.453 37.3986 142.453H118.655C126.418 142.453 134.036 135.996 135.342 128.305L144.991 70.5554C145.789 65.4768 142.887 57.7865 138.897 54.5943L88.6191 14.4014C85.7171 12.0798 81.7994 10.919 77.9542 10.919Z" fill="#6B4EFF"/>
</svg>
