<svg width="155" height="156" viewBox="0 0 155 156" fill="none" xmlns="http://www.w3.org/2000/svg">
<path d="M77.5 155.433C72.5256 155.433 67.8395 152.909 64.5233 148.512L53.7093 134.093C53.493 133.805 52.6279 133.444 52.2674 133.372H48.6628C18.6 133.372 0 125.226 0 84.7093V48.6628C0 16.7977 16.7977 0 48.6628 0H106.337C138.202 0 155 16.7977 155 48.6628V84.7093C155 116.574 138.202 133.372 106.337 133.372H102.733C102.156 133.372 101.651 133.66 101.291 134.093L90.4767 148.512C87.1605 152.909 82.4744 155.433 77.5 155.433ZM48.6628 10.814C22.8535 10.814 10.814 22.8535 10.814 48.6628V84.7093C10.814 117.295 21.9884 122.558 48.6628 122.558H52.2674C55.9442 122.558 60.1256 124.649 62.3605 127.605L73.1744 142.023C75.6977 145.34 79.3023 145.34 81.8256 142.023L92.6395 127.605C95.0186 124.433 98.7674 122.558 102.733 122.558H106.337C132.147 122.558 144.186 110.519 144.186 84.7093V48.6628C144.186 22.8535 132.147 10.814 106.337 10.814H48.6628Z" fill="#979C9E"/>
<path d="M113.547 54.0698H41.4535C38.4977 54.0698 36.0465 51.6186 36.0465 48.6628C36.0465 45.707 38.4977 43.2558 41.4535 43.2558H113.547C116.502 43.2558 118.953 45.707 118.953 48.6628C118.953 51.6186 116.502 54.0698 113.547 54.0698Z" fill="#979C9E"/>
<path d="M84.7093 90.1163H41.4535C38.4977 90.1163 36.0465 87.6651 36.0465 84.7093C36.0465 81.7535 38.4977 79.3023 41.4535 79.3023H84.7093C87.6651 79.3023 90.1163 81.7535 90.1163 84.7093C90.1163 87.6651 87.6651 90.1163 84.7093 90.1163Z" fill="#979C9E"/>
</svg>
