<svg width="154" height="219" viewBox="0 0 154 219" fill="none" xmlns="http://www.w3.org/2000/svg">
<path d="M75.4969 106.278C75.1897 106.278 74.985 106.278 74.6778 106.278C74.166 106.176 73.4493 106.176 72.835 106.278C43.1455 105.357 20.7247 82.0144 20.7247 53.2462C20.7247 23.9662 44.5788 0.112122 73.8588 0.112122C103.139 0.112122 126.993 23.9662 126.993 53.2462C126.891 82.0144 104.367 105.357 75.804 106.278C75.7016 106.278 75.5992 106.278 75.4969 106.278ZM73.8588 15.4688C53.0761 15.4688 36.0814 32.4635 36.0814 53.2462C36.0814 73.7218 52.0523 90.2046 72.4255 90.9212C72.9374 90.8189 74.3707 90.8189 75.7016 90.9212C95.7677 89.9998 111.534 73.517 111.636 53.2462C111.636 32.4635 94.6415 15.4688 73.8588 15.4688Z" fill="#979C9E"/>
<path d="M75.5996 218.177C55.5336 218.177 35.3651 213.058 20.1108 202.82C5.88032 193.401 -1.90039 180.502 -1.90039 166.476C-1.90039 152.45 5.88032 139.448 20.1108 129.927C50.8242 109.554 100.58 109.554 131.088 129.927C145.217 139.346 153.1 152.246 153.1 166.271C153.1 180.297 145.319 193.299 131.088 202.82C115.732 213.058 95.6657 218.177 75.5996 218.177ZM28.6082 142.827C18.7799 149.379 13.4563 157.774 13.4563 166.578C13.4563 175.281 18.8823 183.676 28.6082 190.125C54.1003 207.222 97.099 207.222 122.591 190.125C132.419 183.573 137.743 175.178 137.743 166.374C137.743 157.672 132.317 149.277 122.591 142.827C97.099 125.832 54.1003 125.832 28.6082 142.827Z" fill="#979C9E"/>
</svg>
