<svg width="152" height="144" viewBox="0 0 152 144" fill="none" xmlns="http://www.w3.org/2000/svg">
<path d="M76.0001 98.2675C61.3035 98.2675 49.3759 86.4483 49.3759 71.8853C49.3759 57.3224 61.3035 45.5032 76.0001 45.5032C90.6966 45.5032 102.624 57.3224 102.624 71.8853C102.624 86.4483 90.6966 98.2675 76.0001 98.2675ZM76.0001 56.056C67.1963 56.056 60.0255 63.1616 60.0255 71.8853C60.0255 80.609 67.1963 87.7146 76.0001 87.7146C84.8038 87.7146 91.9746 80.609 91.9746 71.8853C91.9746 63.1616 84.8038 56.056 76.0001 56.056Z" fill="#292D32"/>
<path d="M98.6022 143.742C97.119 143.742 95.6357 143.53 94.1524 143.178C89.7732 141.978 86.1004 139.227 83.7695 135.348L82.9219 133.937C78.7546 126.742 73.0335 126.742 68.8662 133.937L68.0892 135.277C65.7584 139.227 62.0855 142.049 57.7063 143.178C53.2565 144.377 48.6654 143.742 44.7807 141.414L32.632 134.431C28.3234 131.962 25.2156 127.941 23.8736 123.074C22.6022 118.207 23.2379 113.199 25.71 108.896C27.7584 105.298 28.3234 102.054 27.1227 100.008C25.9219 97.9624 22.8848 96.7633 18.7175 96.7633C8.4052 96.7633 0 88.3692 0 78.0706V65.6558C0 55.3571 8.4052 46.9631 18.7175 46.9631C22.8848 46.9631 25.9219 45.7639 27.1227 43.7183C28.3234 41.6727 27.829 38.4279 25.71 34.8304C23.2379 30.5276 22.6022 25.4488 23.8736 20.6522C25.145 15.785 28.2528 11.7643 32.632 9.29547L44.8513 2.31216C52.8327 -2.41392 63.3569 0.337078 68.1598 8.44901L69.0074 9.85978C73.1747 17.0547 78.8959 17.0547 83.0632 9.85978L83.8401 8.51955C88.6431 0.337078 99.1673 -2.41392 107.219 2.3827L119.368 9.36601C123.677 11.8349 126.784 15.8556 128.126 20.7227C129.398 25.5899 128.762 30.5981 126.29 34.901C124.242 38.4984 123.677 41.7432 124.877 43.7888C126.078 45.8344 129.115 47.0336 133.283 47.0336C143.595 47.0336 152 55.4277 152 65.7263V78.1411C152 88.4397 143.595 96.8338 133.283 96.8338C129.115 96.8338 126.078 98.033 124.877 100.079C123.677 102.124 124.171 105.369 126.29 108.966C128.762 113.269 129.468 118.348 128.126 123.145C126.855 128.012 123.747 132.033 119.368 134.501L107.149 141.485C104.465 142.966 101.569 143.742 98.6022 143.742ZM75.9294 117.643C82.2156 117.643 88.0781 121.593 92.1041 128.576L92.881 129.916C93.7286 131.398 95.1413 132.456 96.8364 132.879C98.5316 133.302 100.227 133.091 101.639 132.244L113.859 125.19C115.695 124.132 117.108 122.369 117.673 120.253C118.238 118.136 117.955 115.95 116.896 114.116C112.87 107.203 112.375 100.079 115.483 94.6471C118.591 89.2156 125.019 86.1119 133.071 86.1119C137.591 86.1119 141.193 82.5145 141.193 78V65.5852C141.193 61.1413 137.591 57.4733 133.071 57.4733C125.019 57.4733 118.591 54.3696 115.483 48.9381C112.375 43.5067 112.87 36.3823 116.896 29.4695C117.955 27.6355 118.238 25.4488 117.673 23.3326C117.108 21.2165 115.766 19.5236 113.929 18.3949L101.71 11.4116C98.6729 9.57763 94.6468 10.6357 92.8104 13.7394L92.0335 15.0796C88.0074 22.063 82.145 26.0131 75.8587 26.0131C69.5725 26.0131 63.71 22.063 59.684 15.0796L58.9071 13.6689C57.1413 10.7062 53.1859 9.64817 50.1487 11.4116L37.9294 18.4655C36.0929 19.5236 34.6803 21.287 34.1152 23.4032C33.5502 25.5193 33.8327 27.706 34.8922 29.54C38.9182 36.4528 39.4126 43.5772 36.3048 49.0087C33.197 54.4401 26.7695 57.5438 18.7175 57.5438C14.197 57.5438 10.5948 61.1413 10.5948 65.6558V78.0706C10.5948 82.5145 14.197 86.1825 18.7175 86.1825C26.7695 86.1825 33.197 89.2862 36.3048 94.7176C39.4126 100.149 38.9182 107.274 34.8922 114.186C33.8327 116.02 33.5502 118.207 34.1152 120.323C34.6803 122.439 36.0223 124.132 37.8587 125.261L50.0781 132.244C51.5613 133.161 53.3271 133.373 54.9517 132.95C56.6468 132.526 58.0595 131.398 58.9777 129.916L59.7546 128.576C63.7807 121.663 69.6431 117.643 75.9294 117.643Z" fill="#292D32"/>
</svg>
