<svg width="155" height="140" viewBox="0 0 155 140" fill="none" xmlns="http://www.w3.org/2000/svg">
<path d="M77.5 139.426C75.2651 139.426 73.1023 139.137 71.3 138.487C43.7605 129.023 0 95.4309 0 45.801C0 20.5165 20.4023 0 45.4907 0C57.6744 0 69.0651 4.76793 77.5 13.2924C85.9349 4.76793 97.3256 0 109.509 0C134.598 0 155 20.5888 155 45.801C155 95.5031 111.24 129.023 83.7 138.487C81.8977 139.137 79.7349 139.426 77.5 139.426ZM45.4907 10.8362C26.386 10.8362 10.814 26.5126 10.814 45.801C10.814 95.1419 58.1791 122.594 74.8326 128.301C76.1302 128.734 78.9419 128.734 80.2395 128.301C96.8209 122.594 144.258 95.2141 144.258 45.801C144.258 26.5126 128.686 10.8362 109.581 10.8362C98.6233 10.8362 88.4581 15.9653 81.8977 24.851C79.8791 27.5962 75.2651 27.5962 73.2465 24.851C66.5419 15.8931 56.4488 10.8362 45.4907 10.8362Z" fill="#979C9E"/>
</svg>
