<svg width="20" height="22" viewBox="0 0 20 22" fill="none" xmlns="http://www.w3.org/2000/svg">
<path d="M11.7489 20.2126C11.569 20.5228 11.3107 20.7803 11 20.9593C10.6893 21.1382 10.337 21.2324 9.97839 21.2324C9.6198 21.2324 9.26751 21.1382 8.95678 20.9593C8.64605 20.7803 8.38779 20.5228 8.20786 20.2126M16.1189 6.90811C16.1189 5.27954 15.472 3.71767 14.3204 2.56609C13.1688 1.41452 11.607 0.767568 9.97839 0.767568C8.34981 0.767568 6.78794 1.41452 5.63637 2.56609C4.48479 3.71767 3.83784 5.27954 3.83784 6.90811C3.83784 14.0721 0.767568 16.1189 0.767568 16.1189H19.1892C19.1892 16.1189 16.1189 14.0721 16.1189 6.90811Z" stroke="#464646" stroke-width="1.5" stroke-linecap="round" stroke-linejoin="round"/>
</svg>
