<svg width="12" height="12" viewBox="0 0 12 12" fill="none" xmlns="http://www.w3.org/2000/svg">
<path d="M8.13999 11.05H6.23999C5.95999 11.05 5.34999 10.965 5.02499 10.64L3.50999 9.47L3.96999 8.875L5.51999 10.075C5.64499 10.195 5.95999 10.295 6.23999 10.295H8.13999C8.58999 10.295 9.07499 9.93499 9.17499 9.52999L10.385 5.855C10.465 5.635 10.45 5.435 10.345 5.29C10.235 5.13499 10.035 5.045 9.78999 5.045H7.78999C7.52999 5.045 7.28999 4.93499 7.12499 4.74499C6.95499 4.54999 6.87999 4.28999 6.91999 4.01999L7.16999 2.41499C7.22999 2.13499 7.03999 1.82 6.76999 1.73C6.52499 1.64 6.20999 1.76999 6.09999 1.93L4.04999 4.98L3.42999 4.565L5.47999 1.515C5.79499 1.045 6.48499 0.819995 7.02499 1.025C7.64999 1.23 8.04999 1.91999 7.90999 2.55999L7.66499 4.135C7.65999 4.17 7.65999 4.22 7.69499 4.26C7.71999 4.285 7.75499 4.3 7.79499 4.3H9.79499C10.285 4.3 10.71 4.505 10.96 4.86C11.205 5.205 11.255 5.66 11.095 6.1L9.89999 9.74C9.71499 10.465 8.94499 11.05 8.13999 11.05Z" fill="#292D32"/>
<path d="M2.69 10.5H2.19C1.265 10.5 0.815002 10.065 0.815002 9.17501V4.27501C0.815002 3.38501 1.265 2.95001 2.19 2.95001H2.69C3.615 2.95001 4.065 3.38501 4.065 4.27501V9.17501C4.065 10.065 3.615 10.5 2.69 10.5ZM2.19 3.70001C1.645 3.70001 1.565 3.83001 1.565 4.27501V9.17501C1.565 9.62001 1.645 9.75001 2.19 9.75001H2.69C3.235 9.75001 3.315 9.62001 3.315 9.17501V4.27501C3.315 3.83001 3.235 3.70001 2.69 3.70001H2.19Z" fill="#292D32"/>
</svg>
