<svg width="14" height="14" viewBox="0 0 14 14" fill="none" xmlns="http://www.w3.org/2000/svg">
<path d="M10.5489 14C9.81306 14 9.03817 13.8242 8.23724 13.4856C7.45584 13.1535 6.66793 12.6977 5.89956 12.1442C5.13769 11.5842 4.40188 10.9591 3.70513 10.2754C3.01489 9.57864 2.38978 8.84282 1.83629 8.08747C1.27628 7.30607 0.82698 6.52467 0.507909 5.76932C0.169303 4.96188 0 4.18048 0 3.44466C0 2.93675 0.0911631 2.45489 0.266978 2.00559C0.449304 1.54326 0.742328 1.11349 1.13954 0.742328C1.64094 0.247443 2.21396 0 2.82606 0C3.08001 0 3.34048 0.0586049 3.56187 0.162791C3.81583 0.280001 4.03071 0.455815 4.18699 0.690235L5.69769 2.81954C5.83444 3.00838 5.93863 3.19071 6.01025 3.37303C6.0949 3.56838 6.14049 3.76373 6.14049 3.95257C6.14049 4.20001 6.06886 4.44095 5.93211 4.66885C5.83444 4.84467 5.68467 5.03351 5.49583 5.22234L5.05304 5.68467C5.05955 5.70421 5.06606 5.71723 5.07258 5.73025C5.15072 5.867 5.307 6.10142 5.60653 6.45305C5.9256 6.8177 6.22514 7.14979 6.52467 7.45584C6.90886 7.83352 7.22793 8.13305 7.52747 8.38049C7.89863 8.69305 8.13956 8.84933 8.28282 8.92096L8.2698 8.95352L8.74515 8.48468C8.94701 8.28282 9.14236 8.13305 9.33119 8.03538C9.68934 7.81398 10.1452 7.77491 10.601 7.96375C10.7703 8.03538 10.9526 8.13305 11.1479 8.2698L13.3098 9.80655C13.5507 9.96934 13.7266 10.1777 13.8307 10.4252C13.9284 10.6726 13.974 10.9005 13.974 11.1284C13.974 11.441 13.9024 11.7535 13.7656 12.0466C13.6289 12.3396 13.4596 12.5935 13.2447 12.828C12.8735 13.2382 12.4698 13.5312 12.001 13.72C11.5517 13.9024 11.0633 14 10.5489 14ZM2.82606 0.976748C2.46792 0.976748 2.13582 1.13303 1.81675 1.44559C1.51721 1.72559 1.30884 2.03164 1.17861 2.36373C1.04186 2.70234 0.976748 3.06048 0.976748 3.44466C0.976748 4.05025 1.12 4.70792 1.40652 5.38514C1.69954 6.07537 2.10977 6.79165 2.63071 7.50793C3.15164 8.22421 3.7442 8.92096 4.39536 9.57864C5.04653 10.2233 5.74979 10.8224 6.47258 11.3498C7.17584 11.8642 7.89863 12.281 8.61491 12.5805C9.72841 13.0559 10.7703 13.1666 11.6298 12.8084C11.9619 12.6717 12.2549 12.4633 12.5219 12.1638C12.6717 12.001 12.7889 11.8252 12.8866 11.6168C12.9647 11.454 13.0038 11.2847 13.0038 11.1154C13.0038 11.0112 12.9842 10.907 12.9321 10.7898C12.9126 10.7507 12.8735 10.6791 12.7498 10.5945L10.5879 9.05771C10.4577 8.96654 10.3405 8.90143 10.2298 8.85585C10.0865 8.79724 10.0279 8.73864 9.80655 8.87538C9.67631 8.9405 9.5591 9.03817 9.42887 9.1684L8.93398 9.65678C8.68003 9.90422 8.28933 9.96283 7.9898 9.85213L7.81398 9.77399C7.547 9.63073 7.23444 9.40934 6.88933 9.11631C6.57677 8.84933 6.23816 8.53677 5.82793 8.13305C5.50886 7.80747 5.18979 7.46235 4.85769 7.07816C4.55164 6.72002 4.33025 6.41398 4.1935 6.16002L4.11536 5.96467C4.07629 5.8149 4.06327 5.73025 4.06327 5.63909C4.06327 5.40467 4.14792 5.1963 4.31071 5.03351L4.79909 4.5256C4.92932 4.39536 5.02699 4.27164 5.09211 4.16094C5.1442 4.07629 5.16374 4.00467 5.16374 3.93955C5.16374 3.88746 5.1442 3.80932 5.11165 3.73118C5.06606 3.62699 4.99444 3.50978 4.90327 3.38606L3.39257 1.25024C3.32745 1.15907 3.24931 1.09396 3.15164 1.04838C3.04745 1.00279 2.93675 0.976748 2.82606 0.976748ZM8.2698 8.96003L8.16561 9.40282L8.34142 8.94701C8.30887 8.9405 8.28282 8.94701 8.2698 8.96003Z" fill="#292D32"/>
</svg>
