<svg width="19" height="14" viewBox="0 0 19 14" fill="none" xmlns="http://www.w3.org/2000/svg">
<path d="M6.99874 14C6.80369 14 6.60864 13.9282 6.45465 13.7742L0.223282 7.54283C-0.0744274 7.24512 -0.0744274 6.75236 0.223282 6.45465L6.45465 0.223282C6.75236 -0.0744274 7.24512 -0.0744274 7.54283 0.223282C7.84054 0.520992 7.84054 1.01375 7.54283 1.31146L1.85555 6.99874L7.54283 12.686C7.84054 12.9837 7.84054 13.4765 7.54283 13.7742C7.39911 13.9282 7.19379 14 6.99874 14Z" fill="white"/>
<path d="M18.2193 7.76869H0.941871C0.520972 7.76869 0.171933 7.41965 0.171933 6.99875C0.171933 6.57785 0.520972 6.22881 0.941871 6.22881H18.2193C18.6402 6.22881 18.9892 6.57785 18.9892 6.99875C18.9892 7.41965 18.6402 7.76869 18.2193 7.76869Z" fill="white"/>
</svg>
