<svg width="24" height="24" viewBox="0 0 24 24" fill="none" xmlns="http://www.w3.org/2000/svg">
<g clip-path="url(#clip0_65_2465)">
<path d="M23.7135 12.2763C23.7135 11.4605 23.6474 10.6404 23.5063 9.83789H12.1875V14.4589H18.6692C18.4003 15.9492 17.536 17.2676 16.2705 18.1054V21.1037H20.1375C22.4083 19.0137 23.7135 15.9272 23.7135 12.2763Z" fill="#4285F4"/>
<path d="M12.1875 24.0008C15.4239 24.0008 18.1533 22.9382 20.1419 21.1039L16.2749 18.1055C15.1991 18.8375 13.8101 19.252 12.1919 19.252C9.06127 19.252 6.40685 17.1399 5.45444 14.3003H1.46399V17.3912C3.5011 21.4434 7.65028 24.0008 12.1875 24.0008Z" fill="#34A853"/>
<path d="M5.45016 14.3005C4.9475 12.8101 4.9475 11.1963 5.45016 9.70593V6.61499H1.46412C-0.237879 10.0058 -0.237879 14.0006 1.46412 17.3914L5.45016 14.3005Z" fill="#FBBC04"/>
<path d="M12.1875 4.74966C13.8983 4.7232 15.5518 5.36697 16.7908 6.54867L20.2169 3.12262C18.0475 1.0855 15.1682 -0.034466 12.1875 0.000808666C7.65028 0.000808666 3.5011 2.55822 1.46399 6.61481L5.45003 9.70575C6.39803 6.86173 9.05686 4.74966 12.1875 4.74966Z" fill="#EA4335"/>
</g>
<defs>
<clipPath id="clip0_65_2465">
<rect width="24" height="24" fill="white"/>
</clipPath>
</defs>
</svg>
