<svg width="18" height="5" viewBox="0 0 18 5" fill="none" xmlns="http://www.w3.org/2000/svg">
<path d="M8.98499 3.91353C8.07496 3.90507 7.36796 3.17021 7.37628 2.27464C7.38457 1.38289 8.12341 0.657649 9.01517 0.665936C9.90692 0.674223 10.6322 1.41307 10.6239 2.30482C10.6156 3.20039 9.89502 3.92199 8.98499 3.91353Z" stroke="black" stroke-opacity="0.85" stroke-width="1.1466"/>
<path d="M15.7771 3.99559C14.8671 3.98713 14.1601 3.25227 14.1684 2.3567C14.1767 1.46495 14.9156 0.739706 15.8073 0.747993C16.6991 0.75628 17.4243 1.49512 17.416 2.38688C17.4077 3.28245 16.6872 4.00404 15.7771 3.99559Z" stroke="black" stroke-opacity="0.85" stroke-width="1.1466"/>
<path d="M2.19271 3.8316C1.28268 3.82314 0.575679 3.08828 0.584001 2.19271C0.592288 1.30096 1.33113 0.575717 2.22289 0.584004C3.11464 0.592291 3.83988 1.33114 3.8316 2.22289C3.82327 3.11846 3.10274 3.84006 2.19271 3.8316Z" stroke="black" stroke-opacity="0.85" stroke-width="1.1466"/>
</svg>
