<svg width="21" height="21" viewBox="0 0 21 21" fill="none" xmlns="http://www.w3.org/2000/svg">
<path d="M18.235 4.03376C17.7881 3.58664 17.2575 3.23195 16.6735 2.98996C16.0895 2.74797 15.4635 2.62341 14.8313 2.62341C14.1991 2.62341 13.5731 2.74797 12.9891 2.98996C12.4051 3.23195 11.8745 3.58664 11.4275 4.03376L10.5 4.96126L9.57254 4.03376C8.66981 3.13103 7.44545 2.62388 6.16879 2.62388C4.89214 2.62388 3.66777 3.13103 2.76504 4.03376C1.86231 4.93649 1.35516 6.16086 1.35516 7.43751C1.35516 8.71416 1.86231 9.93853 2.76504 10.8413L3.69254 11.7688L10.5 18.5763L17.3075 11.7688L18.235 10.8413C18.6822 10.3943 19.0368 9.86372 19.2788 9.2797C19.5208 8.69567 19.6454 8.06969 19.6454 7.43751C19.6454 6.80533 19.5208 6.17935 19.2788 5.59532C19.0368 5.0113 18.6822 4.48067 18.235 4.03376V4.03376Z" stroke="white" stroke-width="1.03125" stroke-linecap="round" stroke-linejoin="round"/>
</svg>
