<svg width="13" height="13" viewBox="0 0 13 13" fill="none" xmlns="http://www.w3.org/2000/svg">
<g clip-path="url(#clip0_0_253)">
<path d="M11.2883 2.49712C11.0117 2.22033 10.6832 2.00076 10.3217 1.85096C9.96012 1.70115 9.5726 1.62405 9.18126 1.62405C8.78991 1.62405 8.40239 1.70115 8.04085 1.85096C7.67931 2.00076 7.35083 2.22033 7.07417 2.49712L6.5 3.07129L5.92583 2.49712C5.367 1.93829 4.60906 1.62434 3.81875 1.62434C3.02844 1.62434 2.2705 1.93829 1.71166 2.49712C1.15283 3.05596 0.83888 3.8139 0.83888 4.60421C0.83888 5.39452 1.15283 6.15246 1.71166 6.71129L2.28583 7.28546L6.5 11.4996L10.7142 7.28546L11.2883 6.71129C11.5651 6.43463 11.7847 6.10615 11.9345 5.74461C12.0843 5.38307 12.1614 4.99556 12.1614 4.60421C12.1614 4.21286 12.0843 3.82535 11.9345 3.46381C11.7847 3.10227 11.5651 2.77378 11.2883 2.49712V2.49712Z" stroke="#090A0A" stroke-width="1.03125" stroke-linecap="round" stroke-linejoin="round"/>
</g>
<defs>
<clipPath id="clip0_0_253">
<rect width="12.9412" height="12.9412" fill="white" transform="scale(1.00455)"/>
</clipPath>
</defs>
</svg>
