<svg width="3" height="15" viewBox="0 0 3 15" fill="none" xmlns="http://www.w3.org/2000/svg">
<path d="M1.72852e-07 7.5C2.09569e-07 6.66 0.675 6 1.5 6C2.325 6 3 6.675 3 7.5C3 8.325 2.325 9 1.5 9C0.675 9 1.36134e-07 8.34 1.72852e-07 7.5Z" fill="#292D32"/>
<path d="M1.72852e-07 13.5C2.09569e-07 12.66 0.675 12 1.5 12C2.325 12 3 12.675 3 13.5C3 14.325 2.325 15 1.5 15C0.675 15 1.36134e-07 14.34 1.72852e-07 13.5Z" fill="#292D32"/>
<path d="M1.72852e-07 1.5C2.09569e-07 0.66 0.675 -1.01629e-07 1.5 -6.55671e-08C2.325 -2.95052e-08 3 0.675 3 1.5C3 2.325 2.325 3 1.5 3C0.675 3 1.36134e-07 2.34 1.72852e-07 1.5Z" fill="#292D32"/>
</svg>
