<svg width="9" height="10" viewBox="0 0 9 10" fill="none" xmlns="http://www.w3.org/2000/svg">
<path d="M1.51844 8.35101C1.2369 8.35101 0.973821 8.25409 0.78459 8.07409C0.544589 7.84793 0.429204 7.50639 0.470742 7.13716L0.641512 5.64177C0.67382 5.36023 0.84459 4.98638 1.04305 4.7833L4.8323 0.772517C5.77846 -0.229026 6.76615 -0.256718 7.7677 0.68944C8.76924 1.6356 8.79693 2.62329 7.85077 3.62484L4.06153 7.63562C3.86768 7.84332 3.50768 8.03716 3.22614 8.08332L1.73998 8.33716C1.66152 8.34178 1.59229 8.35101 1.51844 8.35101ZM6.31384 0.684824C5.95846 0.684824 5.64923 0.906364 5.33538 1.23867L1.54613 5.25407C1.45382 5.351 1.34767 5.58177 1.32921 5.71562L1.15844 7.21101C1.13998 7.36331 1.1769 7.48793 1.25998 7.56639C1.34305 7.64485 1.46767 7.67255 1.61998 7.64947L3.10614 7.39562C3.23998 7.37255 3.46152 7.25254 3.55383 7.15562L7.34308 3.14483C7.91539 2.5356 8.12308 1.97252 7.28769 1.1879C6.91846 0.832517 6.6 0.684824 6.31384 0.684824Z" fill="#292D32"/>
<path d="M6.9647 4.39573C6.95547 4.39573 6.94163 4.39573 6.93239 4.39573C5.49239 4.25265 4.33392 3.1588 4.11238 1.72802C4.08469 1.53879 4.21392 1.36341 4.40315 1.3311C4.59239 1.30341 4.76777 1.43264 4.80008 1.62187C4.97546 2.7388 5.88008 3.59726 7.00624 3.70803C7.19547 3.72649 7.33394 3.89726 7.31547 4.0865C7.2924 4.26188 7.14009 4.39573 6.9647 4.39573Z" fill="#292D32"/>
<path d="M8.65388 9.84198H0.346155C0.156924 9.84198 0 9.68506 0 9.49583C0 9.30659 0.156924 9.14967 0.346155 9.14967H8.65388C8.84311 9.14967 9.00004 9.30659 9.00004 9.49583C9.00004 9.68506 8.84311 9.84198 8.65388 9.84198Z" fill="#292D32"/>
</svg>
