<svg width="34" height="34" viewBox="0 0 34 34" fill="none" xmlns="http://www.w3.org/2000/svg">
<path d="M20.7187 21.7812L12.2187 13.2812C11.9283 12.9908 11.9283 12.5091 12.2187 12.2187C12.5091 11.9283 12.9908 11.9283 13.2812 12.2187L21.7812 20.7187C22.0716 21.0091 22.0716 21.4908 21.7812 21.7812C21.4908 22.0716 21.0091 22.0716 20.7187 21.7812Z" fill="#292D32"/>
<path d="M12.2187 21.7812C11.9283 21.4908 11.9283 21.0091 12.2187 20.7187L20.7187 12.2187C21.0091 11.9283 21.4908 11.9283 21.7812 12.2187C22.0716 12.5091 22.0716 12.9908 21.7812 13.2812L13.2812 21.7812C12.9908 22.0716 12.5091 22.0716 12.2187 21.7812Z" fill="#292D32"/>
</svg>
