<svg width="106" height="100" viewBox="0 0 106 100" fill="none" xmlns="http://www.w3.org/2000/svg">
<path d="M69.7687 100C68.5129 100 67.3501 99.3023 66.7455 98.2325C66.1408 97.1627 66.1408 95.8139 66.792 94.7441L71.6757 86.6046C72.6524 84.9302 74.792 84.4185 76.4664 85.3953C78.1408 86.372 78.6524 88.5117 77.6756 90.1861L76.4198 92.2792C89.257 89.2559 98.8849 77.7209 98.8849 63.9535C98.8849 62.0465 100.466 60.4651 102.373 60.4651C104.28 60.4651 105.862 62.0465 105.862 63.9535C105.815 83.8139 89.6291 100 69.7687 100Z" fill="white"/>
<path d="M9.30231 39.5348C7.39534 39.5348 5.81394 37.9535 5.81394 36.0465C5.81394 16.186 22 0 41.8604 0C43.1162 0 44.279 0.697696 44.8836 1.76746C45.4883 2.83723 45.4883 4.18607 44.8372 5.25583L39.9534 13.3954C38.9767 15.0698 36.8372 15.5814 35.1627 14.6047C33.4883 13.628 32.9767 11.4883 33.9535 9.81388L35.2093 7.7208C22.3721 10.7441 12.7442 22.279 12.7442 36.0465C12.7907 37.9535 11.2093 39.5348 9.30231 39.5348Z" fill="white"/>
<circle cx="79.75" cy="24.3019" r="24.3019" fill="white"/>
<circle cx="24.3019" cy="75.698" r="24.3019" fill="white"/>
</svg>
