<svg width="24" height="24" viewBox="0 0 24 24" fill="none" xmlns="http://www.w3.org/2000/svg">
<path d="M16.3358 1.00012C16.3358 1.00012 14.7 1.03974 13.2 2.53974C11.7 4.03974 11.953 6.06049 11.953 6.06049C11.953 6.06049 13.4379 6.33201 15.0226 4.74729C16.6074 3.16256 16.3358 1.00012 16.3358 1.00012Z" fill="#0F172A"/>
<path d="M12.1246 7.3396C11.019 7.33204 10.3398 6.37734 8.45672 6.37734C6.76237 6.37734 5.06385 7.47051 4.34163 8.52828C3.62276 9.58111 3.00012 10.7358 3.00012 13.0792C3.00012 15.4226 4.12844 19.4528 6.90297 22.1811C7.37813 22.6483 8.00711 22.9995 8.72466 23.0213C10.0152 23.0604 10.8077 22.0943 12.4379 22.0943C14.0681 22.0943 14.5586 23.0213 16.0303 23.0213C16.6995 23.0213 17.4627 22.7165 18.2039 21.9283C19.1548 20.917 20.3349 18.9909 20.9359 17.1434C20.9359 17.1434 17.9259 15.9809 17.9623 12.6301C17.9925 9.8528 20.351 8.48675 20.351 8.48675C20.351 8.48675 18.9736 6.29053 16.0454 6.29053C14.0228 6.30565 13.1171 7.34639 12.1246 7.3396Z" fill="#0F172A"/>
</svg>
