<svg width="22" height="17" viewBox="0 0 22 17" fill="none" xmlns="http://www.w3.org/2000/svg">
<path d="M0.064708 8.68793C0.110056 8.78953 0.16238 8.8691 0.236505 8.94105L7.84916 16.3297C8.15307 16.6247 8.64971 16.6172 8.94468 16.3133C9.23965 16.0094 9.23223 15.5128 8.92832 15.2178L2.65733 9.13136L21.2373 8.85391C21.6609 8.84759 22.0063 8.49179 21.9999 8.06819C21.9936 7.64459 21.6378 7.29925 21.2142 7.30558L2.63421 7.58302L8.72067 1.31204C9.01564 1.00812 9.00823 0.511487 8.70431 0.216517C8.4004 -0.0784535 7.90376 -0.0710375 7.60879 0.232876L0.220146 7.84553C0.148202 7.91965 0.0982773 8.00076 0.0559831 8.10366C-0.0216287 8.28744 -0.0183566 8.50655 0.064708 8.68793Z" fill="#292D32"/>
</svg>
