<svg width="7" height="9" viewBox="0 0 7 9" fill="none" xmlns="http://www.w3.org/2000/svg">
<path d="M1.23152 8.64564C0.964468 8.6871 0.700652 8.6339 0.49465 8.49103C0.233693 8.31185 0.0739498 8.00487 0.0589784 7.64852L0.000752001 6.20492C-0.0100618 5.93311 0.0968695 5.55335 0.255216 5.33149L3.25888 0.969061C4.00887 -0.120283 4.94167 -0.291998 6.03102 0.457994C7.12036 1.20799 7.29207 2.14079 6.54208 3.23013L3.53842 7.59256C3.38513 7.81812 3.0722 8.055 2.81194 8.14024L1.43962 8.59988C1.36588 8.61581 1.30157 8.63476 1.23152 8.64564ZM4.65128 0.667709C4.31418 0.720043 4.05348 0.975722 3.80472 1.33715L0.801737 5.70396C0.728451 5.80949 0.661741 6.04402 0.66394 6.1737L0.722166 7.6173C0.727083 7.76449 0.780458 7.87726 0.870815 7.93945C0.961172 8.00164 1.08345 8.00956 1.22453 7.96524L2.59684 7.5056C2.72041 7.464 2.91288 7.31755 2.98616 7.21202L5.98982 2.84959C6.44297 2.18742 6.55706 1.62273 5.64911 1.0015C5.24654 0.718768 4.92272 0.62557 4.65128 0.667709Z" fill="#292D32"/>
<path d="M5.81505 4.09186C5.8063 4.09322 5.79316 4.09526 5.78441 4.09662C4.39742 4.17296 3.13748 3.30598 2.71664 1.98144C2.66251 1.80603 2.75926 1.62063 2.934 1.56212C3.10942 1.50799 3.29481 1.60474 3.35332 1.77948C3.68416 2.81312 4.66866 3.4942 5.75319 3.43343C5.9354 3.42308 6.09189 3.56467 6.10224 3.74689C6.10618 3.91665 5.98142 4.06603 5.81505 4.09186Z" fill="#292D32"/>
</svg>
