<svg width="81" height="77" viewBox="0 0 81 77" fill="none" xmlns="http://www.w3.org/2000/svg">
<path d="M53.3835 76.5147C52.4226 76.5147 51.5329 75.9809 51.0703 75.1623C50.6076 74.3438 50.6076 73.3118 51.1058 72.4932L54.8426 66.2653C55.59 64.9841 57.227 64.5926 58.5082 65.34C59.7894 66.0873 60.1808 67.7245 59.4335 69.0057L58.4726 70.6072C68.2949 68.2939 75.6617 59.468 75.6617 48.9338C75.6617 47.4747 76.8717 46.2647 78.3308 46.2647C79.7899 46.2647 81 47.4747 81 48.9338C80.9644 64.13 68.5797 76.5147 53.3835 76.5147Z" fill="#6B4EFF"/>
<path d="M7.1176 30.25C5.65848 30.25 4.44848 29.04 4.44848 27.5809C4.44848 12.3847 16.8332 0 32.0294 0C32.9903 0 33.8799 0.533841 34.3426 1.35237C34.8052 2.1709 34.8053 3.20296 34.307 4.02149L30.5702 10.2494C29.8229 11.5306 28.1858 11.9221 26.9047 11.1748C25.6235 10.4274 25.232 8.79024 25.9794 7.50907L26.9403 5.90755C17.1179 8.22079 9.75115 17.0468 9.75115 27.5809C9.78674 29.04 8.57672 30.25 7.1176 30.25Z" fill="#6B4EFF"/>
<circle cx="61.0206" cy="18.5946" r="18.5946" fill="#6B4EFF"/>
<circle cx="18.5946" cy="57.9202" r="18.5946" fill="#6B4EFF"/>
</svg>
