<svg width="13" height="13" viewBox="0 0 13 13" fill="none" xmlns="http://www.w3.org/2000/svg">
<path d="M1.14357 12.9999C0.852893 12.9999 0.562222 12.8929 0.332744 12.6634C-0.110915 12.2197 -0.110915 11.4854 0.332744 11.0417L11.0417 0.332744C11.4854 -0.110915 12.2197 -0.110915 12.6634 0.332744C13.107 0.776402 13.107 1.51073 12.6634 1.95439L1.95439 12.6634C1.72491 12.8929 1.43424 12.9999 1.14357 12.9999Z" fill="#292D32"/>
<path d="M11.8526 12.9999C11.5619 12.9999 11.2712 12.8929 11.0417 12.6634L0.332744 1.95439C-0.110915 1.51073 -0.110915 0.776402 0.332744 0.332744C0.776402 -0.110915 1.51073 -0.110915 1.95439 0.332744L12.6634 11.0417C13.107 11.4854 13.107 12.2197 12.6634 12.6634C12.4339 12.8929 12.1432 12.9999 11.8526 12.9999Z" fill="#292D32"/>
</svg>
