<svg width="18" height="18" viewBox="0 0 18 18" fill="none" xmlns="http://www.w3.org/2000/svg">
<path d="M6.68245 15.5025C6.53995 15.5025 6.39745 15.45 6.28495 15.3375C6.06745 15.12 6.06745 14.76 6.28495 14.5425L11.175 9.65251C11.535 9.29251 11.535 8.70751 11.175 8.34751L6.28495 3.45751C6.06745 3.24001 6.06745 2.88001 6.28495 2.66251C6.50245 2.44501 6.86245 2.44501 7.07995 2.66251L11.97 7.55251C12.3525 7.93501 12.57 8.45252 12.57 9.00002C12.57 9.54751 12.36 10.065 11.97 10.4475L7.07995 15.3375C6.96745 15.4425 6.82495 15.5025 6.68245 15.5025Z" fill="#292D32"/>
</svg>
