<svg width="22" height="22" viewBox="0 0 22 22" fill="none" xmlns="http://www.w3.org/2000/svg">
<path d="M15.9958 20.8541C14.96 20.8541 13.8691 20.6066 12.7416 20.13C11.6416 19.6625 10.5325 19.0208 9.45081 18.2416C8.37831 17.4533 7.34248 16.5733 6.36165 15.6108C5.38998 14.63 4.50998 13.5941 3.73081 12.5308C2.94248 11.4308 2.30998 10.3308 1.86081 9.26748C1.38415 8.13081 1.14581 7.03081 1.14581 5.99498C1.14581 5.27998 1.27415 4.60165 1.52165 3.96915C1.77831 3.31831 2.19081 2.71331 2.74998 2.19081C3.45581 1.49415 4.26248 1.14581 5.12415 1.14581C5.48165 1.14581 5.84831 1.22831 6.15998 1.37498C6.51748 1.53998 6.81998 1.78748 7.03998 2.11748L9.16665 5.11498C9.35915 5.38081 9.50581 5.63748 9.60665 5.89415C9.72581 6.16915 9.78998 6.44415 9.78998 6.70998C9.78998 7.05831 9.68915 7.39748 9.49665 7.71831C9.35915 7.96581 9.14831 8.23165 8.88248 8.49748L8.25915 9.14831C8.26831 9.17581 8.27748 9.19415 8.28665 9.21248C8.39665 9.40498 8.61665 9.73498 9.03831 10.23C9.48748 10.7433 9.90915 11.2108 10.3308 11.6416C10.8716 12.1733 11.3208 12.595 11.7425 12.9433C12.265 13.3833 12.6041 13.6033 12.8058 13.7041L12.7875 13.75L13.4566 13.09C13.7408 12.8058 14.0158 12.595 14.2816 12.4575C14.7858 12.1458 15.4275 12.0908 16.0691 12.3566C16.3075 12.4575 16.5641 12.595 16.8391 12.7875L19.8825 14.9508C20.2216 15.18 20.4691 15.4733 20.6158 15.8216C20.7533 16.17 20.8175 16.4908 20.8175 16.8116C20.8175 17.2516 20.7166 17.6916 20.5241 18.1041C20.3316 18.5166 20.0933 18.8741 19.7908 19.2041C19.2683 19.7816 18.7 20.1941 18.04 20.46C17.4075 20.7166 16.72 20.8541 15.9958 20.8541ZM5.12415 2.52081C4.61998 2.52081 4.15248 2.74081 3.70331 3.18081C3.28165 3.57498 2.98831 4.00581 2.80498 4.47331C2.61248 4.94998 2.52081 5.45415 2.52081 5.99498C2.52081 6.84748 2.72248 7.77331 3.12581 8.72665C3.53831 9.69831 4.11581 10.7066 4.84915 11.715C5.58248 12.7233 6.41665 13.7041 7.33331 14.63C8.24998 15.5375 9.23998 16.3808 10.2575 17.1233C11.2475 17.8475 12.265 18.4341 13.2733 18.8558C14.8408 19.525 16.3075 19.6808 17.5175 19.1766C17.985 18.9841 18.3975 18.6908 18.7733 18.2691C18.9841 18.04 19.1491 17.7925 19.2866 17.4991C19.3966 17.27 19.4516 17.0316 19.4516 16.7933C19.4516 16.6466 19.4241 16.5 19.3508 16.335C19.3233 16.28 19.2683 16.1791 19.0941 16.06L16.0508 13.8966C15.8675 13.7683 15.7025 13.6766 15.5466 13.6125C15.345 13.53 15.2625 13.4475 14.9508 13.64C14.7675 13.7316 14.6025 13.8691 14.4191 14.0525L13.7225 14.74C13.365 15.0883 12.815 15.1708 12.3933 15.015L12.1458 14.905C11.77 14.7033 11.33 14.3916 10.8441 13.9791C10.4041 13.6033 9.92748 13.1633 9.34998 12.595C8.90081 12.1366 8.45165 11.6508 7.98415 11.11C7.55331 10.6058 7.24165 10.175 7.04915 9.81748L6.93915 9.54248C6.88415 9.33165 6.86581 9.21248 6.86581 9.08415C6.86581 8.75415 6.98498 8.46081 7.21415 8.23165L7.90165 7.51665C8.08498 7.33331 8.22248 7.15915 8.31415 7.00331C8.38748 6.88415 8.41498 6.78331 8.41498 6.69165C8.41498 6.61831 8.38748 6.50831 8.34165 6.39831C8.27748 6.25165 8.17665 6.08665 8.04831 5.91248L5.92165 2.90581C5.82998 2.77748 5.71998 2.68581 5.58248 2.62165C5.43581 2.55748 5.27998 2.52081 5.12415 2.52081ZM12.7875 13.7591L12.6408 14.3825L12.8883 13.7408C12.8425 13.7316 12.8058 13.7408 12.7875 13.7591Z" fill="#292D32"/>
<path d="M16.9583 8.93752C16.5825 8.93752 16.2708 8.62585 16.2708 8.25002C16.2708 7.92002 15.9408 7.23252 15.3908 6.64585C14.85 6.06835 14.2542 5.72919 13.75 5.72919C13.3742 5.72919 13.0625 5.41752 13.0625 5.04169C13.0625 4.66585 13.3742 4.35419 13.75 4.35419C14.6392 4.35419 15.5742 4.83085 16.39 5.70169C17.1508 6.51752 17.6458 7.51669 17.6458 8.25002C17.6458 8.62585 17.3342 8.93752 16.9583 8.93752Z" fill="#292D32"/>
<path d="M20.1667 8.93748C19.7908 8.93748 19.4792 8.62581 19.4792 8.24998C19.4792 5.08748 16.9125 2.52081 13.75 2.52081C13.3742 2.52081 13.0625 2.20915 13.0625 1.83331C13.0625 1.45748 13.3742 1.14581 13.75 1.14581C17.6642 1.14581 20.8542 4.33581 20.8542 8.24998C20.8542 8.62581 20.5425 8.93748 20.1667 8.93748Z" fill="#292D32"/>
</svg>
